<?xml version="1.0" standalone="no"?>
<!DOCTYPE svg PUBLIC "-//W3C//DTD SVG 20010904//EN"
 "http://www.w3.org/TR/2001/REC-SVG-20010904/DTD/svg10.dtd">
<svg version="1.0" xmlns="http://www.w3.org/2000/svg"
 width="700.000000pt" height="700.000000pt" viewBox="0 0 700.000000 700.000000"
 preserveAspectRatio="xMidYMid meet">
<metadata>
Created by potrace 1.14, written by Peter Selinger 2001-2017
</metadata>
<g transform="translate(0.000000,700.000000) scale(0.100000,-0.100000)"
fill="#000000" stroke="none">
<path d="M830 6120 c-65 -11 -143 -81 -164 -146 -13 -43 -8 -111 11 -155 15
-32 102 -126 321 -344 166 -165 302 -304 302 -309 0 -6 -89 -100 -199 -210
-212 -215 -225 -233 -224 -328 2 -99 86 -191 188 -203 91 -12 131 10 263 139
l113 111 31 -35 c29 -33 217 -236 246 -266 10 -11 10 -18 -2 -41 -24 -48 -83
-204 -105 -278 -52 -180 -72 -315 -75 -512 -6 -276 54 -565 172 -828 l40 -90
5 -165 c2 -91 7 -176 10 -189 21 -81 62 -174 103 -228 13 -17 24 -35 24 -40 0
-4 -19 -28 -41 -53 -23 -25 -76 -83 -118 -130 -42 -46 -83 -91 -91 -100 -8 -9
-76 -83 -150 -165 -74 -83 -139 -155 -145 -161 -5 -6 -44 -48 -85 -94 -41 -46
-88 -98 -105 -116 -16 -17 -64 -69 -105 -115 -41 -46 -84 -93 -95 -105 -72
-79 -76 -84 -58 -84 15 0 230 39 298 54 212 46 519 143 716 226 148 63 350
166 476 242 l91 56 37 -59 c91 -147 266 -266 436 -295 57 -10 1029 -10 1092
-1 171 27 350 147 444 298 l36 59 26 -17 c215 -143 558 -303 862 -402 122 -39
331 -96 394 -107 17 -2 37 -7 45 -9 8 -2 31 -7 50 -10 19 -4 71 -13 115 -21
44 -8 86 -14 93 -14 11 0 -54 77 -168 200 -31 33 -186 204 -203 223 -10 12
-49 55 -87 97 -38 42 -77 85 -87 97 -16 18 -145 160 -212 232 -13 14 -53 59
-90 100 -36 41 -75 84 -86 96 -11 12 -31 33 -44 48 l-24 26 31 48 c40 63 76
145 92 211 l12 52 37 -32 c108 -96 377 -298 398 -298 8 0 11 41 12 144 0 80 6
166 12 193 13 53 55 141 118 248 56 95 82 178 85 272 9 280 -125 573 -360 791
-83 77 -85 80 -94 138 -27 188 -90 400 -167 562 l-16 33 58 60 c31 33 72 77
91 97 18 20 58 64 89 96 l56 60 101 -100 c56 -54 105 -102 108 -105 3 -3 20
-14 38 -23 141 -72 313 31 314 189 1 87 -24 122 -236 334 l-195 195 306 305
c220 220 311 318 325 350 49 109 -2 241 -112 288 -47 19 -127 19 -173 -1 -25
-11 -143 -121 -344 -322 -168 -168 -309 -304 -314 -302 -5 2 -95 89 -201 194
-106 106 -208 199 -227 209 -137 69 -311 -42 -311 -199 0 -72 22 -108 140
-229 63 -65 116 -122 117 -125 2 -4 -19 -32 -47 -62 -27 -30 -75 -85 -107
-122 -32 -37 -61 -67 -65 -67 -4 -1 -46 25 -95 58 -190 126 -392 215 -613 270
-188 46 -273 56 -475 56 -168 0 -252 -8 -388 -36 -229 -46 -481 -151 -684
-284 l-101 -66 -45 48 c-24 26 -70 77 -101 113 -32 36 -62 67 -67 68 -21 8 -3
31 109 146 90 92 121 131 130 162 33 114 -13 221 -116 270 -52 24 -136 23
-187 -4 -22 -11 -127 -108 -233 -215 l-193 -194 -308 306 c-168 169 -322 314
-342 323 -42 20 -91 26 -139 18z m2875 -1101 c33 -6 71 -12 85 -15 14 -3 39
-7 55 -10 55 -10 212 -64 288 -99 174 -79 315 -179 460 -327 89 -91 203 -235
193 -245 -2 -3 -22 5 -44 16 -186 95 -472 177 -792 226 -28 4 -131 15 -200 21
-71 6 -438 5 -505 -1 -104 -9 -238 -26 -290 -35 -27 -5 -66 -12 -85 -15 -173
-28 -500 -134 -632 -206 -27 -14 -22 -2 27 67 59 82 187 217 273 287 287 234
593 344 957 345 83 0 177 -4 210 -9z m1313 -1318 c4 -9 7 -101 7 -206 -1 -157
-5 -208 -23 -291 -31 -145 -65 -243 -132 -381 l-59 -123 1 -168 c0 -119 -3
-176 -13 -193 -7 -13 -11 -25 -10 -27 10 -12 -53 -77 -94 -97 -49 -24 -57 -25
-295 -28 l-245 -2 0 -250 -1 -250 -34 -53 c-24 -36 -49 -59 -80 -75 -45 -22
-49 -22 -545 -22 -547 0 -525 -2 -587 59 -58 59 -62 79 -63 346 l-1 245 -239
2 c-261 2 -301 9 -352 62 -56 58 -65 98 -65 285 l-1 171 -42 85 c-68 134 -121
280 -141 384 -2 12 -6 32 -9 46 -18 90 -27 223 -22 342 3 76 8 142 11 147 4 5
621 9 1517 9 1392 0 1511 -1 1517 -17z"/>
<path d="M2703 3474 c-79 -28 -131 -63 -185 -123 -210 -239 -108 -603 197
-706 70 -24 194 -22 266 3 185 65 305 238 298 426 -12 298 -298 497 -576 400z"/>
<path d="M4063 3490 c-139 -29 -269 -143 -319 -280 -22 -63 -29 -177 -14 -241
37 -156 157 -283 308 -328 50 -14 160 -17 212 -6 136 30 258 134 309 263 26
66 31 93 32 168 0 70 -6 100 -34 169 -24 56 -25 58 -86 126 -97 109 -258 159
-408 129z"/>
<path d="M3285 2400 c-2 -3 -4 -101 -3 -218 l0 -212 219 0 219 0 -3 218 -2
217 -213 1 c-117 0 -215 -2 -217 -6z"/>
</g>
</svg>
